<svg width="260" height="145" viewBox="0 0 260 145" fill="none" xmlns="http://www.w3.org/2000/svg">
<g clip-path="url(#clip0)">
<g opacity="0.4">
<path opacity="0.4" d="M109.487 34.1584C108.111 33.5986 107.713 33.2599 107.713 32.6485C107.713 32.1592 108.078 31.5876 109.108 31.5876C110.019 31.5876 110.717 31.952 110.723 31.9552C110.797 31.995 110.879 32.0162 110.961 32.0162C111.16 32.0162 111.336 31.8938 111.409 31.7043L111.659 31.0554C111.746 30.8189 111.614 30.6129 111.446 30.539C110.885 30.2913 109.789 30.0997 109.778 30.0977C109.761 30.0945 109.699 30.0812 109.699 30.0083L109.696 29.067C109.696 28.7835 109.463 28.5526 109.176 28.5526H108.727C108.441 28.5526 108.208 28.7833 108.208 29.0671L108.209 30.0568C108.209 30.1327 108.128 30.1657 108.099 30.1726C106.716 30.507 105.851 31.5352 105.851 32.8321C105.851 34.4489 107.168 35.1795 108.59 35.728C109.727 36.1809 110.19 36.6402 110.19 37.3139C110.19 38.0466 109.534 38.5588 108.593 38.5588C107.79 38.5588 106.702 38.0419 106.692 38.0365C106.622 38.003 106.548 37.9863 106.473 37.9863C106.266 37.9863 106.085 38.1132 106.013 38.3099L105.774 38.9662C105.69 39.2114 105.82 39.4101 105.988 39.4988C106.655 39.8516 107.947 40.0586 108.005 40.0677C108.02 40.0697 108.099 40.0978 108.099 40.1709V41.1561C108.099 41.4399 108.332 41.6707 108.619 41.6707H109.083C109.369 41.6707 109.602 41.4399 109.602 41.1561V40.1193C109.602 40.0221 109.673 40.0138 109.687 40.0101C111.161 39.6741 112.068 38.5802 112.068 37.2064C112.068 35.7953 111.296 34.8837 109.487 34.1584Z" fill="#FFC93F"/>
<path opacity="0.4" d="M108.908 22.7808C102.217 22.7808 96.7938 28.419 96.7938 35.3738C96.7938 42.3287 102.217 47.9672 108.908 47.9672C115.599 47.9672 121.022 42.3287 121.022 35.3738C121.022 28.419 115.599 22.7808 108.908 22.7808ZM108.908 45.0486C103.768 45.0486 99.6011 40.7169 99.6011 35.3738C99.6011 30.031 103.768 25.6994 108.908 25.6994C114.048 25.6994 118.215 30.031 118.215 35.3738C118.215 40.7169 114.048 45.0486 108.908 45.0486Z" fill="#FFC93F"/>
<path opacity="0.4" d="M127.573 53.906C124.466 55.5395 120.193 57.0504 115.931 57.6869C112.14 58.2534 105.006 56.8872 105.006 55.2738C105.006 54.6624 111.263 56.7804 115.047 55.8186C117.948 55.0809 117.537 52.4946 115.958 52.1535C114.389 51.8142 105.196 48.6054 101.269 48.4949C99.419 48.4426 94.852 49.1076 92.6422 49.4507C91.885 49.5679 91.4103 49.5552 91.363 50.2453C91.1433 53.4531 90.7098 60.0132 90.4736 63.4397C90.4686 63.5121 90.5739 64.4856 91.4173 63.8005C92.3406 63.0508 93.6352 62.2196 94.8326 62.4783C96.7113 62.8843 112.964 65.7212 115.206 65.2247C118.413 64.5145 127.491 59.3884 129.232 57.7951C131.93 55.3251 129.833 52.7174 127.573 53.906Z" fill="white"/>
<path opacity="0.4" d="M78.2003 65.0327L78.1956 65.0532C78.1318 65.3332 78.1835 65.5687 78.2892 65.7289C78.3915 65.8837 78.5556 65.9858 78.7713 65.9972L88.1568 65.9962H88.1642L88.1712 65.9966C88.6087 66.0157 89.0629 65.614 89.1035 65.0213L78.2003 65.0327ZM78.2003 65.0327L78.2023 65.0116L79.7412 49.2587C79.8814 48.6845 80.4178 48.2778 80.8761 48.3033L89.3521 48.7743C89.7825 48.7981 90.175 49.2322 90.1351 49.8222L89.1035 65.021L78.2003 65.0327ZM81.7021 61.5992C81.7021 63.2039 82.8642 64.5764 84.3809 64.5764C85.8976 64.5764 87.0597 63.2042 87.0597 61.5992C87.0597 59.9945 85.8976 58.6219 84.3809 58.6219C82.8642 58.6219 81.7021 59.9942 81.7021 61.5992Z" stroke="white" stroke-width="2"/>
</g>
<g opacity="0.4">
<path opacity="0.4" d="M217.739 17.7668C220.191 17.7668 222.187 15.774 222.187 13.3244C222.187 10.8749 220.191 8.88214 217.739 8.88214C215.286 8.88214 213.291 10.8749 213.291 13.3244C213.291 15.774 215.286 17.7668 217.739 17.7668Z" fill="#008373"/>
<path opacity="0.4" d="M208.578 16.7506C210.759 16.7506 212.533 14.9788 212.533 12.8008C212.533 10.6229 210.759 8.85107 208.578 8.85107C206.397 8.85107 204.624 10.623 204.624 12.8008C204.624 14.9787 206.397 16.7506 208.578 16.7506Z" fill="#008373"/>
<path opacity="0.4" d="M222.191 19.4761C221.915 18.8399 221.294 18.4303 220.602 18.4139C220.597 18.4138 214.344 18.4127 214.334 18.4127C213.805 18.4127 213.315 18.6475 212.985 19.0373L212.653 18.2706C212.404 17.6962 211.839 17.3252 211.212 17.3252C211.197 17.3252 205.582 17.3252 205.551 17.3252C204.785 17.3252 204.358 17.6963 204.109 18.2706L201.085 25.2559C200.918 25.64 200.912 26.0661 201.066 26.4552C201.221 26.8444 201.517 27.1501 201.902 27.3161C202.1 27.402 202.31 27.4455 202.524 27.4455C203.151 27.4455 203.717 27.0743 203.965 26.5L204.601 25.0321V38.5568C204.601 39.5082 205.376 40.2824 206.329 40.2824C207.282 40.2824 208.057 39.5082 208.057 38.5568V29.6952H208.786V38.5568C208.786 39.5082 209.561 40.2824 210.514 40.2824C211.467 40.2824 212.243 39.5082 212.243 38.5568V29.2101C212.368 29.0705 212.474 28.9102 212.551 28.7317L213.257 27.101C213.26 27.1032 213.263 27.1058 213.265 27.1082V42.2915C213.265 43.3619 214.137 44.2326 215.209 44.2326C216.281 44.2326 217.153 43.3619 217.153 42.2915V32.2193H217.972V42.2915C217.972 43.3619 218.844 44.2326 219.916 44.2326C220.988 44.2326 221.86 43.3619 221.86 42.2915L221.864 27.6039L222.352 28.7319C222.632 29.3778 223.268 29.7952 223.973 29.7952C224.214 29.7952 224.45 29.7463 224.673 29.6499C225.106 29.4632 225.439 29.1193 225.613 28.6816C225.787 28.2438 225.779 27.7648 225.592 27.3327L222.191 19.4761Z" fill="#008373"/>
<path opacity="0.4" d="M236.755 13.3244C236.755 15.774 238.75 17.7668 241.203 17.7668C243.656 17.7668 245.651 15.774 245.651 13.3244C245.651 10.8749 243.656 8.88214 241.203 8.88214C238.75 8.88214 236.755 10.8749 236.755 13.3244Z" fill="#008373"/>
<path opacity="0.4" d="M250.364 16.7506C252.545 16.7506 254.318 14.9788 254.318 12.8008C254.318 10.6229 252.545 8.85107 250.364 8.85107C248.183 8.85107 246.409 10.623 246.409 12.8008C246.409 14.9787 248.183 16.7506 250.364 16.7506Z" fill="#008373"/>
<path opacity="0.4" d="M257.857 25.2559L254.833 18.2706C254.584 17.6962 254.018 17.3252 253.391 17.3252C253.359 17.3252 247.745 17.3252 247.73 17.3252C247.103 17.3252 246.538 17.6963 246.289 18.2706L245.957 19.0375C245.627 18.6477 245.137 18.4129 244.608 18.4129C244.598 18.4129 238.345 18.414 238.34 18.414C237.574 18.414 237.027 18.8401 236.751 19.4763L233.35 27.3325C233.162 27.7646 233.155 28.2437 233.328 28.6813C233.502 29.1191 233.836 29.4629 234.269 29.6496C234.492 29.746 234.727 29.7949 234.969 29.7949C235.673 29.7949 236.31 29.3776 236.589 28.7316L237.078 27.6037L237.082 42.2912C237.082 43.3615 237.954 44.2322 239.026 44.2322C240.097 44.2322 240.969 43.3615 240.969 42.2912V32.219H241.789V42.2912C241.789 43.3615 242.661 44.2322 243.733 44.2322C244.804 44.2322 245.676 43.3615 245.676 42.2912V27.1079C245.679 27.1056 245.682 27.1031 245.685 27.1007L246.391 28.7315C246.468 28.9099 246.574 29.0702 246.699 29.2099V38.5565C246.699 39.5082 247.475 40.2821 248.428 40.2821C249.38 40.2821 250.156 39.5082 250.156 38.5565V29.695H250.885V38.5565C250.885 39.5082 251.66 40.2821 252.613 40.2821C253.566 40.2821 254.341 39.5082 254.341 38.5565V25.0318L254.977 26.4998C255.225 27.0741 255.791 27.4452 256.417 27.4452C256.632 27.4452 256.841 27.4017 257.04 27.316C257.425 27.15 257.721 26.8441 257.876 26.455C258.03 26.0659 258.024 25.64 257.857 25.2559Z" fill="#008373"/>
<path opacity="0.4" d="M229.446 11.8892C232.67 11.8892 235.293 9.26996 235.293 6.05036C235.293 2.83066 232.67 0.211365 229.446 0.211365C226.222 0.211365 223.6 2.8308 223.6 6.05036C223.6 9.26996 226.222 11.8892 229.446 11.8892Z" fill="#FFC93F"/>
<path opacity="0.6" d="M238.964 15.3366C243.152 11.5092 243.577 10.6686 243.806 10.2167C244.806 8.23843 245.308 3.63568 245.399 2.73308C245.536 1.37013 244.537 0.149842 243.172 0.0128025C243.089 0.00457227 243.006 0.000391699 242.924 0.000391699C241.64 0.000391699 240.576 0.961891 240.448 2.23679C240.237 4.32426 239.774 7.07876 239.388 7.92489C238.9 8.6254 236.523 10.8719 234.016 13.106H225.406C222.899 10.8716 220.521 8.62514 220.034 7.92466C219.648 7.07956 219.185 4.32503 218.974 2.23744C218.846 0.961888 217.783 0 216.5 0C216.418 0 216.333 0.00418051 216.25 0.0125414C214.885 0.14932 213.886 1.36974 214.023 2.73295C214.113 3.63568 214.615 8.23883 215.616 10.2166C215.844 10.6681 216.269 11.5086 220.458 15.3366C221.621 16.3998 222.732 17.3822 223.456 18.0162V45.3217C223.456 46.7472 224.618 47.9066 226.045 47.9066C227.472 47.9066 228.633 46.7472 228.633 45.3217V31.0018H230.269V45.3217C230.269 46.7472 231.43 47.9066 232.857 47.9066C234.284 47.9066 235.446 46.7472 235.446 45.3217L235.437 18.4776C236.03 17.9618 237.458 16.7129 238.964 15.3366Z" fill="#FFC93F"/>
</g>
<g opacity="0.4">
<path opacity="0.4" d="M259.763 116.862C256.91 109.351 249.387 105.465 241.087 107.019C233.046 98.9895 221.891 93.5499 210.738 93.291C209.959 93.291 209.441 93.8089 209.441 94.5861C209.7 105.724 215.147 116.862 222.929 124.892C221.632 132.922 225.264 140.693 232.786 143.543C231.489 140.175 231.23 136.29 232.267 132.404C233.564 133.181 234.861 133.958 236.158 134.477C236.677 134.736 237.196 134.736 237.715 134.218L250.684 121.266C250.944 121.007 250.944 120.489 250.684 119.971C250.166 118.676 249.387 117.381 248.609 116.344C252.5 115.308 256.391 115.567 259.763 116.862ZM231.23 115.049C229.155 117.122 226.042 117.122 223.967 115.049C221.891 112.977 221.891 109.869 223.967 107.797C226.042 105.724 229.155 105.724 231.23 107.797C233.305 109.869 233.305 112.977 231.23 115.049Z" fill="url(#paint0_linear)"/>
<path opacity="0.4" d="M258.549 129.291L253.102 123.851C252.064 122.815 250.508 122.815 249.47 123.851C248.433 124.888 248.433 126.442 249.47 127.478L254.918 132.917C255.955 133.954 257.512 133.954 258.549 132.917C259.587 131.881 259.587 130.327 258.549 129.291Z" fill="#FFC93F"/>
<path opacity="0.4" d="M256.095 136.326L248.573 128.815C247.535 127.778 245.979 127.778 244.941 128.815C243.904 129.85 243.904 131.405 244.941 132.441L252.464 139.953C253.501 140.989 255.058 140.989 256.095 139.953C257.133 138.916 257.133 137.362 256.095 136.326Z" fill="#FEA811"/>
<path opacity="0.4" d="M248.988 138.839L243.54 133.399C242.503 132.363 240.947 132.363 239.909 133.399C238.872 134.435 238.872 135.989 239.909 137.026L245.356 142.465C246.394 143.501 247.95 143.501 248.988 142.465C250.025 141.429 250.025 139.875 248.988 138.839Z" fill="#F54536"/>
</g>
<g opacity="0.4">
<path opacity="0.4" d="M173.858 103.364C170.09 94.6558 164.027 88.0229 160.958 89.2624C155.749 91.3656 164.062 101.467 138.479 111.797C136.269 112.689 135.709 116.26 136.634 118.395C137.556 120.529 140.579 122.654 142.79 121.762C143.172 121.608 144.576 121.16 144.576 121.16C146.155 123.263 147.806 122.016 148.393 123.353C149.096 124.959 150.628 128.451 151.148 129.639C151.669 130.826 152.849 131.925 153.707 131.602C154.561 131.279 157.471 130.179 158.585 129.758C159.697 129.337 159.963 128.352 159.623 127.574C159.256 126.737 157.752 126.491 157.323 125.513C156.894 124.536 155.492 121.402 155.089 120.415C154.541 119.072 155.705 117.979 157.397 117.804C169.041 116.599 171.218 123.742 175.183 122.141C178.25 120.901 177.626 112.073 173.858 103.364ZM172.546 117.492C171.865 117.767 167.282 114.176 164.354 107.406C161.426 100.637 161.794 94.4491 162.474 94.1747C163.155 93.8993 167.625 98.2307 170.553 104.999C173.481 111.768 173.228 117.216 172.546 117.492Z" fill="#F54536"/>
</g>
<g opacity="0.4">
<path opacity="0.4" d="M37.4739 103.418H21.4512C14.0782 103.418 8.09908 109.198 8.09908 116.326V131.817C8.09908 138.945 14.0782 144.725 21.4512 144.725H37.4739C44.8468 144.725 50.8258 138.945 50.8258 131.817V116.326C50.8258 109.198 44.8468 103.418 37.4739 103.418ZM46.8201 131.817C46.8201 136.799 42.6276 140.853 37.4739 140.853H21.4512C16.2973 140.853 12.1047 136.799 12.1047 131.817V116.326C12.1047 111.344 16.2973 107.29 21.4512 107.29H37.4739C42.6276 107.29 46.8201 111.344 46.8201 116.326V131.817Z" fill="url(#paint1_linear)"/>
<path opacity="0.4" d="M29.4625 113.745C23.5635 113.745 18.7807 118.369 18.7807 124.071C18.7807 129.774 23.5635 134.398 29.4625 134.398C35.3613 134.398 40.144 129.774 40.144 124.071C40.144 118.369 35.3613 113.745 29.4625 113.745ZM29.4625 130.526C25.7826 130.526 22.7864 127.629 22.7864 124.071C22.7864 120.511 25.7826 117.617 29.4625 117.617C33.1423 117.617 36.1386 120.511 36.1386 124.071C36.1386 127.629 33.1423 130.526 29.4625 130.526Z" fill="url(#paint2_linear)"/>
<path opacity="0.4" d="M40.9451 114.346C41.7315 114.346 42.3686 113.73 42.3686 112.97C42.3686 112.21 41.7315 111.594 40.9451 111.594C40.1591 111.594 39.522 112.21 39.522 112.97C39.522 113.73 40.1591 114.346 40.9451 114.346Z" fill="#A22AA8"/>
<path opacity="0.4" d="M25.2036 98.8381L19.0473 98.8284C12.1309 98.8284 7.66117 103.262 7.66117 110.124V115.331H1.47124C0.936359 115.331 0.50322 115.751 0.50322 116.268V123.813C0.50322 124.33 0.936856 124.749 1.47124 124.749H7.66117V143.789C7.66117 144.306 8.09431 144.725 8.62918 144.725H16.7052C17.2401 144.725 17.6733 144.306 17.6733 143.789V124.749H24.9107C25.4456 124.749 25.8788 124.33 25.8788 123.813L25.8817 116.268C25.8817 116.019 25.7795 115.782 25.5982 115.606C25.417 115.43 25.17 115.331 24.9132 115.331H17.6733V110.917C17.6733 108.795 18.1963 107.718 21.0554 107.718L25.2026 107.716C25.737 107.716 26.1702 107.297 26.1702 106.78V99.7738C26.1702 99.2575 25.7375 98.8388 25.2036 98.8381Z" fill="#4267B2"/>
</g>
<g opacity="0.4">
<path opacity="0.4" d="M32.4308 21.1014C32.4308 20.7295 32.1402 20.3359 31.785 20.2267L12.6899 14.3717C12.3346 14.2629 12.1714 14.4502 12.3273 14.7878L15.8802 22.5111C16.0357 22.8487 16.4401 23.2506 16.7786 23.4038L21.6499 25.6129C21.9884 25.7659 21.9966 26.0329 21.6678 26.2063L0.881715 37.1545C0.552864 37.3277 0.510573 37.2664 0.787817 37.0188L8.77381 29.8976C9.05115 29.6501 9.27801 29.1434 9.27801 28.7715L9.28368 7.18283C9.28341 6.81086 8.99268 6.41699 8.63747 6.30784L0.646088 3.85827C0.290753 3.74966 0 3.96527 0 4.33724V37.0888C0 37.4607 0.249004 37.9397 0.553267 38.1531L8.67407 43.8507C8.97835 44.0641 9.48839 44.0832 9.80763 43.8929L31.8513 30.7457C32.1705 30.5553 32.4318 30.0953 32.4318 29.7233L32.4308 21.1014Z" fill="#008373"/>
<path opacity="0.4" d="M58.3742 20.8821H36.7543V28.0738H49.9445C47.9769 34.3259 42.1247 38.8613 35.2097 38.8613C26.6806 38.8613 19.7669 31.9614 19.7669 23.4506C19.7669 14.9394 26.6809 8.04018 35.2097 8.04018C39.5046 8.04018 43.3891 9.79025 46.1884 12.6142L51.4196 6.94011C47.2418 2.85487 41.5212 0.335022 35.2097 0.335022C22.4165 0.334899 12.0455 10.6842 12.0455 23.4506C12.0455 36.2171 22.4165 46.5666 35.2097 46.5666C46.4162 46.5666 56.2278 38.6248 58.3742 28.0739V20.8823V20.8821Z" fill="#4285F4"/>
</g>
</g>
<defs>
<linearGradient id="paint0_linear" x1="226.299" y1="111.884" x2="219.264" y2="119.432" gradientUnits="userSpaceOnUse">
<stop stop-color="#979090"/>
<stop offset="1" stop-color="#F4EEEE"/>
</linearGradient>
<linearGradient id="paint1_linear" x1="12.0103" y1="140.944" x2="45.7354" y2="106.059" gradientUnits="userSpaceOnUse">
<stop stop-color="#FFC107"/>
<stop offset="0.507" stop-color="#F44336"/>
<stop offset="0.99" stop-color="#9C27B0"/>
</linearGradient>
<linearGradient id="paint2_linear" x1="21.9096" y1="131.373" x2="36.5049" y2="116.276" gradientUnits="userSpaceOnUse">
<stop stop-color="#FFC107"/>
<stop offset="0.507" stop-color="#F44336"/>
<stop offset="0.99" stop-color="#9C27B0"/>
</linearGradient>
<clipPath id="clip0">
<rect width="260" height="144.725" fill="white"/>
</clipPath>
</defs>
</svg>
