<svg width="80" height="80" viewBox="0 0 80 80" fill="none" xmlns="http://www.w3.org/2000/svg">
<g opacity="0.3">
<path d="M40 80C62.0914 80 80 62.0914 80 40C80 17.9086 62.0914 0 40 0C17.9086 0 0 17.9086 0 40C0 62.0914 17.9086 80 40 80Z" fill="#FF5D00"/>
<path d="M40 70.0001C56.5686 70.0001 70.0001 56.5686 70.0001 40C70.0001 23.4314 56.5686 9.99991 40 9.99991C23.4314 9.99991 9.9999 23.4314 9.9999 40C9.9999 56.5686 23.4314 70.0001 40 70.0001Z" fill="white"/>
<path d="M40 60C51.0457 60 60 51.0457 60 40C60 28.9543 51.0457 20 40 20C28.9543 20 20 28.9543 20 40C20 51.0457 28.9543 60 40 60Z" fill="#FF5D00"/>
<path d="M40 50.0001C45.5229 50.0001 50.0001 45.5229 50.0001 40C50.0001 34.4771 45.5229 29.9999 40 29.9999C34.4771 29.9999 29.9999 34.4771 29.9999 40C29.9999 45.5229 34.4771 50.0001 40 50.0001Z" fill="white"/>
</g>
</svg>
