<svg width="42" height="33" viewBox="0 0 42 33" fill="none" xmlns="http://www.w3.org/2000/svg">
<path d="M24.6621 16.6075L11.6928 9.50853L11.6928 23.7065L24.6621 16.6075Z" fill="#FF5D00"/>
<path fill-rule="evenodd" clip-rule="evenodd" d="M23.2045 7.00171C26.2576 9.10253 28.2594 12.6213 28.2594 16.6075C28.2594 20.5938 26.2576 24.1125 23.2045 26.2133L28.966 26.2133C31.0301 23.5616 32.2594 20.2281 32.2594 16.6075C32.2594 12.9869 31.0301 9.65342 28.966 7.00171L23.2045 7.00171Z" fill="#FF5D00"/>
<path fill-rule="evenodd" clip-rule="evenodd" d="M16.6075 4.95564L42 4.95563L42 0.955631L16.6075 0.955639V4.95564ZM16.6075 4.95563C10.1723 4.95563 4.95563 10.1724 4.95563 16.6075C4.95563 23.0403 10.1685 28.2555 16.6004 28.2594L16.6075 28.2594L42 28.2594V32.2594L16.6075 32.2594L16.5992 32.2594H15.7884V32.2383C7.52484 31.8123 0.955627 24.9771 0.955627 16.6075C0.955627 7.96322 7.96321 0.955633 16.6075 0.955633V4.95563Z" fill="#0B132B"/>
</svg>
