<svg width="33" height="31" viewBox="0 0 33 31" fill="none" xmlns="http://www.w3.org/2000/svg">
<path d="M5.5 12.6498H12.65C12.9541 12.6498 13.2 12.4034 13.2 12.0998C13.2 11.7962 12.9541 11.5498 12.65 11.5498H5.5C5.19585 11.5498 4.95 11.7962 4.95 12.0998C4.95 12.4034 5.19585 12.6498 5.5 12.6498Z" fill="#0B132B"/>
<path d="M19.8 14.8499H5.5C5.19585 14.8499 4.95 15.0963 4.95 15.3999C4.95 15.7035 5.19585 15.9499 5.5 15.9499H19.8C20.1041 15.9499 20.35 15.7035 20.35 15.3999C20.35 15.0963 20.1041 14.8499 19.8 14.8499Z" fill="#0B132B"/>
<path d="M19.8 18.1497H5.5C5.19585 18.1497 4.95 18.3961 4.95 18.6997C4.95 19.0033 5.19585 19.2497 5.5 19.2497H19.8C20.1041 19.2497 20.35 19.0033 20.35 18.6997C20.35 18.3961 20.1041 18.1497 19.8 18.1497Z" fill="#0B132B"/>
<path d="M29.7396 0.038256L10.9615 -0.000244141C9.163 -0.000244141 7.7 1.46276 7.7 3.26126V6.07946L3.2615 6.08881C1.463 6.08881 0 7.55181 0 9.35031V20.9779C0 22.7764 1.463 24.2388 3.2615 24.2388H6.6V29.7388C6.6 29.966 6.7397 30.17 6.952 30.252C7.01635 30.2767 7.08345 30.2888 7.15 30.2888C7.3018 30.2888 7.45085 30.2256 7.557 30.109L12.8942 24.2377L22.0385 24.2003C23.837 24.2003 25.3 22.7373 25.3 20.9394V20.8772L28.193 24.0595C28.2992 24.1761 28.4482 24.2394 28.6 24.2394C28.6665 24.2394 28.7337 24.2273 28.798 24.2025C29.0103 24.1206 29.15 23.9165 29.15 23.6894V18.1894H29.7385C31.537 18.1894 33 16.7264 33 14.9284V3.29976C33 1.50181 31.5375 0.038806 29.7396 0.038256ZM24.2 20.9388C24.2 22.1307 23.2304 23.0998 22.0363 23.0998L12.6478 23.1383C12.4938 23.1388 12.3464 23.2043 12.243 23.3181L7.7 28.316V23.6883C7.7 23.3847 7.45415 23.1383 7.15 23.1383H3.2615C2.06965 23.1383 1.1 22.1686 1.1 20.9773V9.34976C1.1 8.15791 2.06965 7.18826 3.2626 7.18826L8.25 7.17781C8.25055 7.17781 8.25055 7.17781 8.2511 7.17781L22.0385 7.14921C23.2304 7.14921 24.2 8.11886 24.2 9.31071V19.4533V20.9388ZM31.9 14.9273C31.9 16.1192 30.9304 17.0883 29.7385 17.0883H28.6C28.2959 17.0883 28.05 17.3347 28.05 17.6383V22.266L25.3 19.241V9.31126C25.3 7.51276 23.837 6.04976 22.0374 6.04976L8.8 6.07671V3.26071C8.8 2.06886 9.76965 1.09921 10.9604 1.09921L29.738 1.13771C29.7385 1.13771 29.7385 1.13771 29.739 1.13771C30.9309 1.13771 31.9006 2.10736 31.9006 3.29921V14.9273H31.9Z" fill="#0B132B"/>
</svg>
