<?xml version="1.0" encoding="utf-8"?>
<!-- Generator: Adobe Illustrator 16.2.0, SVG Export Plug-In . SVG Version: 6.00 Build 0)  -->
<!DOCTYPE svg PUBLIC "-//W3C//DTD SVG 1.1//EN" "http://www.w3.org/Graphics/SVG/1.1/DTD/svg11.dtd">
<svg version="1.1" id="Layer_1" xmlns="http://www.w3.org/2000/svg" xmlns:xlink="http://www.w3.org/1999/xlink" x="0px" y="0px" width="200px" height="45" viewBox="0 0 495.797 108.281" enable-background="new 0 0 495.797 108.281" xml:space="preserve">
<g id="Layer_1_1_" display="none"></g>
<g>
<linearGradient id="SVGID_1_" gradientUnits="userSpaceOnUse" x1="803.6465" y1="-510.9277" x2="813.6143" y2="-624.8602" gradientTransform="matrix(1 0 0 -1 -560.8799 -513.9805)">
<stop offset="0.0959" style="stop-color:#FF5D00;stop-opacity:0.1"/>
<stop offset="0.1651" style="stop-color:#FB5C01;stop-opacity:0.2256"/>
<stop offset="0.2314" style="stop-color:#F05904;stop-opacity:0.3459"/>
<stop offset="0.2965" style="stop-color:#DC540A;stop-opacity:0.4641"/>
<stop offset="0.361" style="stop-color:#C14E12;stop-opacity:0.581"/>
<stop offset="0.4249" style="stop-color:#9E451C;stop-opacity:0.6971"/>
<stop offset="0.4885" style="stop-color:#733B28;stop-opacity:0.8124"/>
<stop offset="0.5505" style="stop-color:#412E36;stop-opacity:0.925"/>
<stop offset="0.5918" style="stop-color:#1C2541"/>
</linearGradient><ellipse fill="none" stroke="url(#SVGID_1_)" stroke-width="3" stroke-miterlimit="10" cx="247.75" cy="53.914" rx="245.75" ry="51.58"/>
<path fill="none" d="M47.208,74.032"/><g>
<path fill="#1C2541" d="M134.621,4.867l-21.96,69.165H85.283c-0.633-10.627-0.713-22.717-0.241-36.271 c-1.9,5.812-6.07,17.901-12.512,36.271H45.308l2.38-69.165h21.303L67.053,29L65.18,52.329 c2.938-12.073,7.749-27.894,14.433-47.462h22.771c-0.054,2.022-0.599,9.627-1.631,22.813l-2.218,26.315 c4.199-16.742,9.127-33.118,14.783-49.128H134.621z"/>
<path fill="#1C2541" d="M138.944,4.867h36.563l-2.44,13.842h-14.636l-2.313,13.115h13.699l-2.32,13.158h-13.699l-2.682,15.209 h16.096l-2.441,13.842h-38.023L138.944,4.867z"/>
</g>
<g>
<path fill="#FF5D00" d="M239.428,53.336c-1.129,6.404-4.01,11.234-8.639,14.494c-4.631,3.26-10.975,4.891-19.028,4.891h-24.164 l11.784-66.831h23.012c3.5,0,6.554,0.397,9.162,1.189c2.605,0.793,4.727,1.924,6.361,3.392c1.633,1.469,2.764,3.253,3.389,5.353 c0.625,2.1,0.709,4.458,0.248,7.07c-1.141,6.462-5.096,11.22-11.867,14.274c2.008,0.558,3.715,1.374,5.119,2.445 c1.404,1.072,2.502,2.321,3.289,3.745c0.787,1.425,1.287,2.99,1.5,4.692C239.805,49.754,239.748,51.516,239.428,53.336z M197.463,64.704h15.625c10.274,0,16.08-3.789,17.416-11.367c0.354-1.996,0.371-3.715,0.056-5.154 c-0.315-1.438-1.029-2.635-2.142-3.59c-1.113-0.954-2.683-1.659-4.709-2.115c-2.025-0.455-4.576-0.683-7.648-0.683h-14.559 L197.463,64.704z M202.916,33.777h14.473c4.811,0,8.445-0.763,10.906-2.291c2.461-1.527,4.02-4.141,4.67-7.842 c0.281-1.586,0.289-3.003,0.025-4.251c-0.264-1.249-0.885-2.291-1.861-3.128c-0.978-0.837-2.36-1.461-4.152-1.873 c-1.792-0.411-4.096-0.617-6.914-0.617h-13.619L202.916,33.777z"/>
<path fill="#FF5D00" d="M301.117,72.721h-9.65l-3.924-20.354h-27.152l-10.805,20.354h-9.008l36.674-66.831h9.223L301.117,72.721z M286.225,45.319l-5.889-31.013l-16.439,31.013H286.225z"/>
<path fill="#FF5D00" d="M332.549,73.866c-4.639,0-8.58-0.564-11.824-1.695s-5.826-2.709-7.746-4.736 c-1.92-2.022-3.205-4.428-3.854-7.201c-0.648-2.772-0.729-5.791-0.24-9.053h8.24c-0.246,2.525-0.014,4.711,0.699,6.563 c0.713,1.852,1.811,3.37,3.295,4.561s3.291,2.078,5.422,2.666c2.131,0.589,4.479,0.882,7.039,0.882 c2.332,0,4.525-0.248,6.578-0.748s3.867-1.232,5.447-2.203c1.58-0.969,2.893-2.158,3.938-3.568 c1.045-1.408,1.729-3.01,2.043-4.801c0.326-1.853,0.244-3.414-0.238-4.691c-0.488-1.277-1.44-2.4-2.865-3.371 c-1.424-0.969-3.36-1.834-5.815-2.599c-2.457-0.764-5.478-1.556-9.06-2.379c-3.646-0.792-6.694-1.747-9.146-2.863 c-2.446-1.116-4.371-2.408-5.764-3.876c-1.394-1.469-2.283-3.151-2.677-5.044c-0.393-1.895-0.375-4.046,0.052-6.454 c0.471-2.672,1.446-5.155,2.936-7.446c1.484-2.291,3.375-4.25,5.668-5.881c2.298-1.63,4.947-2.908,7.955-3.833 c3.013-0.925,6.269-1.388,9.769-1.388c3.586,0,6.809,0.448,9.668,1.344c2.856,0.896,5.213,2.195,7.061,3.898 c1.852,1.704,3.182,3.804,3.992,6.299c0.813,2.497,0.965,5.347,0.457,8.547h-8.367c0.643-8.165-3.961-12.248-13.809-12.248 c-4.924,0-8.851,0.941-11.771,2.82c-2.922,1.88-4.647,4.333-5.184,7.357c-0.248,1.41-0.248,2.622-0.003,3.634 c0.248,1.014,0.865,1.91,1.854,2.687c0.988,0.779,2.394,1.492,4.214,2.137c1.821,0.646,4.182,1.307,7.077,1.982 c2.839,0.705,5.33,1.374,7.482,2.005c2.149,0.632,4.028,1.24,5.633,1.828c1.461,0.587,2.84,1.366,4.135,2.335 c1.298,0.969,2.404,2.144,3.328,3.524c0.925,1.381,1.572,2.989,1.945,4.825c0.375,1.836,0.36,3.885-0.037,6.146 c-0.513,2.907-1.574,5.581-3.187,8.018c-1.61,2.438-3.637,4.548-6.065,6.324c-2.435,1.774-5.214,3.17-8.339,4.185 C339.363,73.36,336.051,73.866,332.549,73.866z"/>
<path fill="#FF5D00" d="M416.986,72.721h-48.287l11.785-66.831h46.791l-1.394,7.886h-38.338l-3.596,20.397h35.774l-1.401,7.974 h-35.777l-3.979,22.556h39.835L416.986,72.721z"/>
</g>
</g>
</svg>
